<svg clip-rule="evenodd" fill-rule="evenodd" stroke-linejoin="round" stroke-miterlimit="2" viewBox="0 0 20 20" xmlns="http://www.w3.org/2000/svg"><path d="m10.004 0c.561 0 1.023.451 1.023 1v3c0 .549-.462 1-1.023 1-.562 0-1.024-.451-1.024-1v-3c0-.549.462-1 1.024-1zm0 15c.561 0 1.023.451 1.023 1v3c0 .549-.462 1-1.023 1-.562 0-1.024-.451-1.024-1v-3c0-.549.462-1 1.024-1zm8.86-10c.281.475.112 1.092-.374 1.366l-2.658 1.5c-.157.09-.336.137-.518.137-.561 0-1.023-.451-1.023-1 0-.359.198-.691.517-.869l2.659-1.5c.486-.274 1.117-.109 1.397.366zm-13.291 7.5c.281.475.112 1.092-.374 1.366l-2.658 1.5c-.157.09-.336.137-.518.137-.561 0-1.023-.451-1.023-1 0-.359.198-.691.517-.869l2.659-1.5c.486-.274 1.117-.109 1.397.366zm13.291 2.5c-.28.475-.911.64-1.397.366l-2.659-1.5c-.312-.179-.505-.508-.505-.863 0-.548.462-1 1.023-1 .177 0 .352.045.506.131l2.658 1.5c.486.274.655.891.374 1.366zm-13.291-7.5c-.28.475-.911.64-1.397.366l-2.659-1.5c-.319-.178-.517-.51-.517-.869 0-.549.462-1 1.023-1 .182 0 .361.047.518.137l2.658 1.5c.486.274.655.891.374 1.366z" fill="#8b40bf" fill-rule="nonzero"/></svg>