<svg clip-rule="evenodd" fill-rule="evenodd" stroke-linejoin="round" stroke-miterlimit="2" viewBox="0 0 20 20" xmlns="http://www.w3.org/2000/svg"><path d="m10 19.001c-4.971 0-9.001-4.03-9.001-9.001s4.03-9.001 9.001-9.001 9.001 4.03 9.001 9.001-4.03 9.001-9.001 9.001zm0-1.8c3.95 0 7.201-3.251 7.201-7.201s-3.251-7.201-7.201-7.201-7.201 3.251-7.201 7.201 3.251 7.201 7.201 7.201zm-1.24-10.428 4.391 2.927c.1.067.161.18.161.3s-.061.233-.161.3l-4.392 2.927c-.059.039-.128.06-.199.06-.197 0-.359-.162-.36-.359v-5.856c0-.197.163-.359.36-.359.071 0 .141.021.2.06z" fill="#f2af0d" fill-rule="nonzero"/></svg>