<svg clip-rule="evenodd" fill-rule="evenodd" stroke-linejoin="round" stroke-miterlimit="2" viewBox="0 0 20 20" xmlns="http://www.w3.org/2000/svg"><path d="m3.546 17.982-.018.018-.019-.018h-1.616c-.489 0-.892-.398-.892-.881v-14.219c.003-.482.404-.878.892-.882h16.215c.493 0 .893.395.893.882v14.219c-.004.482-.404.877-.893.881zm13.655-5.327v-8.879h-14.4v12.43l9-8.879zm0 2.511-5.4-5.328-6.455 6.368h11.855zm-10.8-6.063c-.988 0-1.8-.801-1.8-1.776 0-.974.812-1.775 1.8-1.775.987 0 1.8.801 1.8 1.775 0 .975-.813 1.776-1.8 1.776z" fill="#f25e0d" fill-rule="nonzero"/></svg>