<svg clip-rule="evenodd" fill-rule="evenodd" stroke-linejoin="round" stroke-miterlimit="2" viewBox="0 0 20 20" xmlns="http://www.w3.org/2000/svg"><path d="m9.505 12.625h-5.796l-1.786 4.375h-1.923l5.714-14h1.786l5.714 14h-1.923zm-.714-1.75-2.184-5.351-2.184 5.351zm9.423-.407v-.468h1.786v7h-1.786v-.468c-.542.307-1.158.468-1.784.468-1.959 0-3.571-1.58-3.571-3.5s1.612-3.5 3.571-3.5c.626 0 1.242.161 1.784.468zm-1.785 4.782c.979 0 1.785-.79 1.785-1.75s-.806-1.75-1.785-1.75c-.98 0-1.786.79-1.786 1.75s.806 1.75 1.786 1.75z" fill="#0d79f2" fill-rule="nonzero"/></svg>