<svg clip-rule="evenodd" fill-rule="evenodd" stroke-linejoin="round" stroke-miterlimit="2" viewBox="0 0 20 20" xmlns="http://www.w3.org/2000/svg"><path d="m3.778 9.2 1.778-1.778 4.888 4.889 3.112-3.111 2.666 2.667v-8.089h-12.444v5.422zm0 2.515v4.507h2.755l2.655-2.653-3.632-3.632zm5.27 4.507h7.174v-1.841l-2.666-2.666zm-6.159-14.222h14.222c.488 0 .889.401.889.889v14.222c0 .488-.401.889-.889.889h-14.222c-.488 0-.889-.401-.889-.889v-14.222c0-.488.401-.889.889-.889zm10.222 6.222c-.731 0-1.333-.602-1.333-1.333 0-.732.602-1.333 1.333-1.333.732 0 1.333.601 1.333 1.333 0 .731-.601 1.333-1.333 1.333z" fill="#0d79f2" fill-rule="nonzero"/></svg>