<svg clip-rule="evenodd" fill-rule="evenodd" stroke-linejoin="round" stroke-miterlimit="2" viewBox="0 0 20 20" xmlns="http://www.w3.org/2000/svg"><path d="m2.799 5.407v10.993l4.559-1.86 5.401 2.572 4.442-1.815v-10.992l1.172-.478c.056-.023.117-.035.178-.035.247 0 .45.193.45.429v12.207l-6.301 2.572-5.4-2.572-5.673 2.316c-.056.023-.117.034-.178.034-.247 0-.45-.193-.45-.428 0 0 0 0 0-.001v-12.207l1.8-.735zm11.02 4.372-3.819 3.636-3.819-3.636c-1.012-.964-1.581-2.273-1.581-3.636 0-2.822 2.437-5.144 5.4-5.144s5.4 2.322 5.4 5.144c0 1.363-.569 2.672-1.581 3.636zm-3.819 1.212 2.545-2.425c.676-.643 1.055-1.516 1.055-2.425 0-1.881-1.625-3.429-3.6-3.429s-3.6 1.548-3.6 3.429c0 .909.379 1.782 1.055 2.425z" fill="#f2af0d" fill-rule="nonzero"/></svg>