<svg clip-rule="evenodd" fill-rule="evenodd" stroke-linejoin="round" stroke-miterlimit="2" viewBox="0 0 20 20" xmlns="http://www.w3.org/2000/svg"><path d="m10.632 12.076v1.747c-.555-.19-1.138-.287-1.727-.287-2.841 0-5.179 2.264-5.179 5.015v.001l-1.726-.001s0-.001 0-.002c0-3.668 3.117-6.686 6.905-6.686.583 0 1.163.071 1.727.212zm-1.727-1.046c-2.861 0-5.179-2.244-5.179-5.015s2.318-5.015 5.179-5.015c2.862 0 5.18 2.244 5.18 5.015s-2.318 5.015-5.18 5.015zm0-1.672c1.908 0 3.453-1.496 3.453-3.343s-1.545-3.343-3.453-3.343c-1.907 0-3.452 1.496-3.452 3.343s1.545 3.343 3.452 3.343zm6.043 5.505 1.831-1.774 1.221 1.183-1.832 1.773 1.832 1.772-1.221 1.183-1.831-1.774-1.831 1.774-1.221-1.183 1.831-1.772-1.831-1.773 1.221-1.183z" fill="#8b40bf" fill-rule="nonzero"/></svg>