<svg clip-rule="evenodd" fill-rule="evenodd" stroke-linejoin="round" stroke-miterlimit="2" viewBox="0 0 20 20" xmlns="http://www.w3.org/2000/svg"><path d="m13.49 2.536-6.592 7.08-.692 2.229-1.017 1.094 2.766 2.973 1.018-1.094 2.076-.743 6.591-7.081zm6.225 3.715c.38.407.38 1.078 0 1.486l-7.61 8.175-2.074.743-1.384 1.486c-.379.407-1.004.407-1.383 0l-4.151-4.459c-.379-.408-.379-1.079 0-1.486l1.383-1.486.692-2.229 7.61-8.175c.379-.408 1.004-.408 1.383 0zm-6.225-.743 1.383 1.486-4.843 5.202-1.383-1.486zm-10.722 10.033 2.766 2.973-1.383 1.486-4.151-1.486 2.767-2.973z" fill="#0d79f2" fill-rule="nonzero"/></svg>