<svg clip-rule="evenodd" fill-rule="evenodd" stroke-linejoin="round" stroke-miterlimit="2" viewBox="0 0 20 20" xmlns="http://www.w3.org/2000/svg"><path d="m17.2 11.8c-1.51 0-2.924.414-4.134 1.133 1.077 1.259 1.913 2.705 2.466 4.267h1.668zm-3.596 5.4c-1.764-4.228-5.937-7.2-10.804-7.2v7.2zm-10.804-9c3.447 0 6.591 1.291 8.977 3.416 1.61-1.057 3.496-1.619 5.423-1.616v-7.2h.907c.493 0 .893.4.893.894v14.412c-.003.489-.404.89-.893.894h-16.214c-.49 0-.893-.404-.893-.894v-14.412c.003-.489.404-.89.893-.894h2.707v-1.8h1.8v3.6h-3.6zm12.6-7.2v3.6h-7.2v-1.8h5.4v-1.8zm-1.35 8.1c-.741 0-1.35-.609-1.35-1.35s.609-1.35 1.35-1.35 1.35.609 1.35 1.35-.609 1.35-1.35 1.35z" fill="#f25e0d" fill-rule="nonzero"/></svg>