<svg clip-rule="evenodd" fill-rule="evenodd" stroke-linejoin="round" stroke-miterlimit="2" viewBox="0 0 20 20" xmlns="http://www.w3.org/2000/svg"><path d="m9.208 1 8.568 1.225 1.224 8.568-7.956 7.956c-.336.336-.888.336-1.224 0l-8.568-8.568c-.336-.336-.336-.889 0-1.224l7.956-7.957zm.612 1.837-6.733 6.732 7.345 7.344 6.732-6.732-.917-6.427zm1.835 5.508c-.324-.325-.507-.765-.507-1.224 0-.95.782-1.732 1.732-1.732.459 0 .9.182 1.225.507.324.325.507.766.507 1.225 0 .95-.782 1.731-1.732 1.731-.459 0-.9-.182-1.225-.507z" fill="#0d79f2" fill-rule="nonzero"/></svg>