<svg clip-rule="evenodd" fill-rule="evenodd" stroke-linejoin="round" stroke-miterlimit="2" viewBox="0 0 20 20" xmlns="http://www.w3.org/2000/svg"><path d="m15.783 14.391 4.217 4.216-1.393 1.393-4.216-4.217c-1.568 1.257-3.52 1.942-5.53 1.939-4.891 0-8.861-3.97-8.861-8.861s3.97-8.861 8.861-8.861 8.861 3.97 8.861 8.861c.003 2.01-.682 3.962-1.939 5.53zm-1.975-.73c1.249-1.285 1.948-3.008 1.945-4.8 0-3.808-3.085-6.892-6.892-6.892-3.808 0-6.892 3.084-6.892 6.892 0 3.807 3.084 6.892 6.892 6.892 1.792.003 3.515-.696 4.8-1.945z" fill="#f25e0d" fill-rule="nonzero"/></svg>