<svg clip-rule="evenodd" fill-rule="evenodd" stroke-linejoin="round" stroke-miterlimit="2" viewBox="0 0 20 20" xmlns="http://www.w3.org/2000/svg"><path d="m6 2.473h13v1.894h-13zm-3.5 2.367c-.823 0-1.5-.641-1.5-1.42s.677-1.42 1.5-1.42 1.5.641 1.5 1.42-.677 1.42-1.5 1.42zm0 6.627c-.823 0-1.5-.641-1.5-1.42s.677-1.42 1.5-1.42 1.5.641 1.5 1.42-.677 1.42-1.5 1.42zm0 6.533c-.823 0-1.5-.641-1.5-1.42s.677-1.42 1.5-1.42 1.5.641 1.5 1.42-.677 1.42-1.5 1.42zm3.5-8.899h13v1.893h-13zm0 6.627h13v1.893h-13z" fill="#0d79f2" fill-rule="nonzero"/></svg>