<svg clip-rule="evenodd" fill-rule="evenodd" stroke-linejoin="round" stroke-miterlimit="2" viewBox="0 0 20 20" xmlns="http://www.w3.org/2000/svg"><path d="m10.537 11.971v1.73c-.549-.188-1.126-.284-1.708-.284-2.81 0-5.122 2.242-5.122 4.967v.001l-1.707-.001s0-.001 0-.002c0-3.633 3.083-6.622 6.829-6.622.576 0 1.15.07 1.708.21zm-1.708-1.037c-2.83 0-5.122-2.223-5.122-4.967s2.292-4.967 5.122-4.967 5.122 2.223 5.122 4.967-2.292 4.967-5.122 4.967zm0-1.655c1.887 0 3.415-1.482 3.415-3.312 0-1.829-1.528-3.311-3.415-3.311-1.886 0-3.414 1.482-3.414 3.311 0 1.83 1.528 3.312 3.414 3.312zm4.945 7.379 3.018-2.926 1.208 1.17-4.226 4.098-3.018-2.927 1.208-1.171z" fill="#8b40bf" fill-rule="nonzero"/></svg>