<svg clip-rule="evenodd" fill-rule="evenodd" stroke-linejoin="round" stroke-miterlimit="2" viewBox="0 0 20 20" xmlns="http://www.w3.org/2000/svg"><path d="m6.973 10.731c-.112-.48-.112-.981 0-1.461l-.881-.516.888-1.558.882.515c.354-.339.782-.589 1.249-.73v-1.031h1.778v1.031c.473.142.899.396 1.249.73l.882-.515.888 1.558-.881.516c.112.48.112.98 0 1.46l.881.516-.888 1.558-.882-.515c-.354.339-.782.589-1.249.731v1.03h-1.778v-1.03c-.467-.142-.895-.392-1.249-.731l-.882.515-.888-1.558zm3.027.619c.731 0 1.333-.609 1.333-1.35s-.602-1.35-1.333-1.35-1.333.609-1.333 1.35.602 1.35 1.333 1.35zm2.667-8.55h-8.889v14.4h12.444v-10.8h-3.555zm-10.667-.907c0-.493.397-.893.888-.893h10.668l4.444 4.5v12.594.006c0 .491-.397.897-.883.9h-14.234c-.483-.003-.879-.404-.883-.893v-16.214z" fill="#667e99" fill-rule="nonzero"/></svg>