<svg clip-rule="evenodd" fill-rule="evenodd" stroke-linejoin="round" stroke-miterlimit="2" viewBox="0 0 20 20" xmlns="http://www.w3.org/2000/svg"><path d="m16.474 13.598-1.439-1.441 1.439-1.439c.963-.955 1.505-2.256 1.505-3.613 0-2.79-2.296-5.087-5.086-5.087-1.357 0-2.658.543-3.613 1.506l-1.438 1.44-1.44-1.439 1.441-1.439c1.335-1.335 3.147-2.086 5.035-2.086 3.907 0 7.122 3.215 7.122 7.123 0 1.888-.751 3.701-2.086 5.036l-1.439 1.439zm-2.877 2.877-1.44 1.439c-1.335 1.335-3.147 2.086-5.035 2.086-3.907 0-7.122-3.215-7.122-7.123 0-1.888.751-3.701 2.086-5.036l1.439-1.439 1.439 1.441-1.439 1.439c-.963.955-1.505 2.256-1.505 3.613 0 2.79 2.296 5.087 5.086 5.087 1.357 0 2.658-.543 3.613-1.506l1.438-1.439 1.44 1.439zm-.721-10.792 1.44 1.44-7.193 7.193-1.44-1.439 7.193-7.193z" fill="#0d79f2" fill-rule="nonzero"/></svg>