<svg clip-rule="evenodd" fill-rule="evenodd" stroke-linejoin="round" stroke-miterlimit="2" viewBox="0 0 20 20" xmlns="http://www.w3.org/2000/svg"><path d="m4.667 8.714v8.572h11.555v-8.572zm10.666-1.714h1.778c.488 0 .889.387.889.857v10.286c0 .47-.401.857-.889.857h-14.222c-.488 0-.889-.387-.889-.857v-10.286c0-.47.401-.857.889-.857h1.778v-.857c0-2.821 2.407-5.143 5.333-5.143s5.333 2.322 5.333 5.143zm-1.777 0v-.857c0-1.881-1.605-3.429-3.556-3.429s-3.556 1.548-3.556 3.429v.857zm-8 2.571h1.777v1.715h-1.777zm0 2.572h1.777v1.714h-1.777zm0 2.571h1.777v1.715h-1.777z" fill="#8b40bf" fill-rule="nonzero"/></svg>