<svg clip-rule="evenodd" fill-rule="evenodd" stroke-linejoin="round" stroke-miterlimit="2" viewBox="0 0 20 20" xmlns="http://www.w3.org/2000/svg"><path d="m13.556 14.444v-.888h-2.667v-2.667h2.667v1.778h1.777v1.777h-.889v1.778h-1.777v1.778h-1.778v-2.667h1.778v-.889zm4.444 3.556h-3.556v-1.778h1.778v-1.778h1.778zm-16-16h7.111v7.111h-7.111zm1.778 1.778v3.555h3.555v-3.555zm7.111-1.778h7.111v7.111h-7.111zm1.778 1.778v3.555h3.555v-3.555zm-10.667 7.111h7.111v7.111h-7.111zm1.778 1.778v3.555h3.555v-3.555zm11.555-1.778h2.667v1.778h-2.667zm-10.666-6.222h1.777v1.777h-1.777zm0 8.889h1.777v1.777h-1.777zm8.889-8.889h1.777v1.777h-1.777z" fill="#0d79f2" fill-rule="nonzero"/></svg>