<svg clip-rule="evenodd" fill-rule="evenodd" stroke-linejoin="round" stroke-miterlimit="2" viewBox="0 0 20 20" xmlns="http://www.w3.org/2000/svg"><path d="m18.224 3.793c1.156 1.2 1.776 2.546 1.776 4.727 0 3.839-2.756 7.279-6.764 8.98l-1.002-1.511c3.741-1.979 4.473-4.546 4.764-6.165-.602.305-1.391.411-2.163.341-2.024-.183-3.619-1.807-3.619-3.826 0-2.106 1.772-3.839 3.926-3.839 1.203 0 2.354.537 3.082 1.293zm-11.217 0c1.156 1.2 1.776 2.546 1.776 4.727 0 3.839-2.756 7.279-6.764 8.98l-1.002-1.511c3.741-1.979 4.473-4.546 4.764-6.165-.602.305-1.391.411-2.164.341-2.023-.183-3.617-1.807-3.617-3.826 0-2.106 1.772-3.839 3.926-3.839 1.204 0 2.354.537 3.082 1.293z" fill="#40bf4f" fill-rule="nonzero"/></svg>