<svg clip-rule="evenodd" fill-rule="evenodd" stroke-linejoin="round" stroke-miterlimit="2" viewBox="0 0 20 20" xmlns="http://www.w3.org/2000/svg"><path d="m12.667 2.8h-8.889v14.4h12.444v-10.8h-3.555zm-10.667-.907c0-.493.397-.893.888-.893h10.668l4.444 4.5v12.594.006c0 .491-.397.897-.883.9h-14.234c-.483-.003-.879-.404-.883-.893zm8 7.657c-1.219 0-2.222-1.016-2.222-2.25s1.003-2.25 2.222-2.25 2.222 1.016 2.222 2.25-1.003 2.25-2.222 2.25zm-3.976 4.95c.222-2.043 1.946-3.607 3.976-3.607s3.754 1.564 3.976 3.607z" fill="#667e99" fill-rule="nonzero"/></svg>