<svg clip-rule="evenodd" fill-rule="evenodd" stroke-linejoin="round" stroke-miterlimit="2" viewBox="0 0 20 20" xmlns="http://www.w3.org/2000/svg"><path d="m10 19c-4.971 0-9-4.029-9-9s4.029-9 9-9 9 4.029 9 9-4.029 9-9 9zm0-1.8c3.95 0 7.2-3.25 7.2-7.2s-3.25-7.2-7.2-7.2-7.2 3.25-7.2 7.2 3.25 7.2 7.2 7.2zm-1.24-10.427 4.391 2.927c.1.067.16.18.16.3s-.06.233-.16.3l-4.392 2.927c-.059.039-.128.059-.199.059-.197 0-.359-.161-.36-.358v-5.856c0-.197.163-.359.36-.359.071 0 .141.021.2.06z" fill="#f2af0d" fill-rule="nonzero"/></svg>