<svg clip-rule="evenodd" fill-rule="evenodd" stroke-linejoin="round" stroke-miterlimit="2" viewBox="0 0 20 20" xmlns="http://www.w3.org/2000/svg"><path d="m1 2.882c.003-.483.404-.879.893-.883h16.214c.493 0 .893.396.893.883v14.235c-.003.482-.404.878-.893.882h-16.214c-.49 0-.893-.398-.893-.882zm1.8.895v12.445h14.4v-12.445zm5.96 3.036 4.391 2.89c.1.066.16.177.16.296s-.06.23-.16.296l-4.392 2.891c-.059.039-.128.059-.199.059-.197 0-.359-.16-.36-.354v-5.783c0-.195.163-.355.36-.355.071 0 .141.021.2.06z" fill="#f2af0d" fill-rule="nonzero"/></svg>